<?xml version="1.0" encoding="utf-8"?>
<!-- Generator: Adobe Illustrator 24.2.1, SVG Export Plug-In . SVG Version: 6.00 Build 0)  -->
<svg version="1.1" id="Layer_1" xmlns="http://www.w3.org/2000/svg" xmlns:xlink="http://www.w3.org/1999/xlink" x="0px" y="0px"
	 viewBox="0 0 565.15 500" style="enable-background:new 0 0 565.15 500;" xml:space="preserve">
<style type="text/css">
	.st0{fill:#5A2E83;}
</style>
<path class="st0" d="M291.78,253.49l42.25,86.92c3.44,7.07,3.44,15.33,0,22.4L277,480.13c-4.47,9.18,2.22,19.87,12.44,19.87h33.36
	c4.61,0,8.82-2.63,10.84-6.78l37.34-76.82l0,0L563.75,19.87C568.21,10.69,561.52,0,551.31,0h-33.36c-4.61,0-8.82,2.63-10.84,6.78
	L380.19,267.87c-3.73,7.68-14.68,7.68-18.41,0l-42.25-86.92c-3.44-7.07-3.44-15.33,0-22.4l67.42-138.68
	C391.41,10.69,384.72,0,374.5,0h-33.36c-4.61,0-8.82,2.63-10.84,6.78l-38.52,79.24c-3.73,7.68-14.68,7.68-18.41,0L234.85,6.78
	C232.84,2.63,228.63,0,224.01,0h-33.36c-10.21,0-16.9,10.69-12.44,19.88l67.42,138.68c3.44,7.07,3.44,15.33,0,22.4l-42.25,86.92
	c-3.73,7.68-14.68,7.68-18.41,0L58.05,6.78C56.03,2.63,51.82,0,47.2,0H13.85C3.63,0-3.06,10.69,1.41,19.88l183.56,377.59
	c3.73,7.68,14.68,7.68,18.41,0l69.99-143.98C277.11,245.81,288.05,245.81,291.78,253.49z"/>
</svg>
